<svg width="87" height="77" viewBox="0 0 87 77" fill="none" xmlns="http://www.w3.org/2000/svg">
<path d="M5.20078 71.4V18H20.6208V22.74H10.4208L10.7808 22.26V67.38L10.1808 66.66H20.6208V71.4H5.20078ZM66.36 71.4V66.66H76.56L76.2 67.14V22.02L76.8 22.74H66.36V18H81.78V71.4H66.36Z" fill="#0E1116"/>
<path d="M40.9463 62.6C38.0663 62.6 35.4863 61.9 33.2063 60.5C30.9663 59.06 29.1863 57.12 27.8663 54.68C26.5463 52.2 25.8863 49.38 25.8863 46.22C25.8863 43.06 26.5263 40.26 27.8063 37.82C29.1263 35.34 30.9063 33.4 33.1463 32C35.3863 30.56 37.9263 29.84 40.7663 29.84C42.3263 29.84 43.8263 30.1 45.2663 30.62C46.7463 31.1 48.0663 31.78 49.2263 32.66C50.3863 33.5 51.2863 34.44 51.9263 35.48C52.6063 36.48 52.9463 37.5 52.9463 38.54L51.1463 38.66V17.6H57.3263V62H51.1463V54.5H52.3463C52.3463 55.46 52.0263 56.42 51.3863 57.38C50.7463 58.3 49.8863 59.16 48.8063 59.96C47.7663 60.76 46.5463 61.4 45.1463 61.88C43.7863 62.36 42.3863 62.6 40.9463 62.6ZM41.7863 57.26C43.6663 57.26 45.3263 56.78 46.7663 55.82C48.2063 54.86 49.3263 53.56 50.1263 51.92C50.9663 50.24 51.3863 48.34 51.3863 46.22C51.3863 44.1 50.9663 42.22 50.1263 40.58C49.3263 38.9 48.2063 37.58 46.7663 36.62C45.3263 35.66 43.6663 35.18 41.7863 35.18C39.9063 35.18 38.2463 35.66 36.8063 36.62C35.3663 37.58 34.2263 38.9 33.3863 40.58C32.5863 42.22 32.1863 44.1 32.1863 46.22C32.1863 48.34 32.5863 50.24 33.3863 51.92C34.2263 53.56 35.3663 54.86 36.8063 55.82C38.2463 56.78 39.9063 57.26 41.7863 57.26Z" fill="#5E78F3"/>
</svg>
